<svg class="diagram-root" style="background: #f5f6f6" xmlns="http://www.w3.org/2000/svg" xmlns:xlink="http://www.w3.org/1999/xlink"><style>.diagram-root { font-family: "Helvetica Neue", sans-serif; font-size: 12px; } .t { overflow: visible; } .t-bg { y: 40; fill: #fff;   } .th { fill: #005aa0;   } .tht { fill: #fff; font-size: 14px;  } .tf { fill: #323c46; overflow: visible; } .tf.pk { fill: #005aa0; font-weight: bold; } .tf.fk { font-weight: bold; } .ty { fill: #adb1b5; font-weight: normal; text-anchor: end; } .r { fill: transparent; stroke: #c3c3c3; stroke-width: 1; } .l { stroke: 1; } .i { fill: #c2c7ce; stroke: #c2c7ce; } .i.ix { fill: #afb3b6; stroke: #000; } .fa { fill: transparent; overflow: visible; } .fa .bg.hover { fill: #f7f7f7; } .c { cy: 12; r: 4; stroke: #d2d2dc; fill: #d2d2dc; } .hr { fill: transparent; stroke: #323c46; stroke-opacity: 0.035; stroke-width: 13; } .dc { stroke: #fa5a3c; fill: #fa5a3c; } .x { stroke: white; stroke-width: 1; } .hl .th { fill: #1b9bff; } .hl .tht {  } .fhl .bg { fill: #e7f4ff; } .fhls .bg {  } .r.hl { stroke: #1b9bff; } .dim { opacity: 0.25; }</style><g class="drawing-wrapper" transform="translate(-41, 7) scale(1,1)"><g class="rs"><path d="M 688 155 m -1, 0 a 1,1 0 1,0 2,0 a 1,1 0 1,0 -2,0 M 688 155 m -0.5, 0 a 0.5,0.5 0 1,0 1,0 a 0.5,0.5 0 1,0 -1,0  M688 155 L688 155 676 155 M 688 161 m -1, 0 a 1,1 0 1,0 2,0 a 1,1 0 1,0 -2,0 M 688 161 m -0.5, 0 a 0.5,0.5 0 1,0 1,0 a 0.5,0.5 0 1,0 -1,0  M688 161 L688 161 681 155 688 149 M 688 149 m -1, 0 a 1,1 0 1,0 2,0 a 1,1 0 1,0 -2,0 M 688 149 m -0.5, 0 a 0.5,0.5 0 1,0 1,0 a 0.5,0.5 0 1,0 -1,0  M676 155 Q 562.25 155, 448.5 271.5 T 221 388 M 209 388 m -1, 0 a 1,1 0 1,0 2,0 a 1,1 0 1,0 -2,0 M 209 388 m -0.5, 0 a 0.5,0.5 0 1,0 1,0 a 0.5,0.5 0 1,0 -1,0  M209 388 L209 388 221 388 M215 394 L215 394 215 382" id="h421557469" class="r"></path><path d="M 850 180 m -1, 0 a 1,1 0 1,0 2,0 a 1,1 0 1,0 -2,0 M 850 180 m -0.5, 0 a 0.5,0.5 0 1,0 1,0 a 0.5,0.5 0 1,0 -1,0  M850 180 L850 180 862 180 M 850 186 m -1, 0 a 1,1 0 1,0 2,0 a 1,1 0 1,0 -2,0 M 850 186 m -0.5, 0 a 0.5,0.5 0 1,0 1,0 a 0.5,0.5 0 1,0 -1,0  M850 186 L850 186 857 180 850 174 M 850 174 m -1, 0 a 1,1 0 1,0 2,0 a 1,1 0 1,0 -2,0 M 850 174 m -0.5, 0 a 0.5,0.5 0 1,0 1,0 a 0.5,0.5 0 1,0 -1,0  M862 180 C 912 180, 912.6 685, 861 685 M 849 685 m -1, 0 a 1,1 0 1,0 2,0 a 1,1 0 1,0 -2,0 M 849 685 m -0.5, 0 a 0.5,0.5 0 1,0 1,0 a 0.5,0.5 0 1,0 -1,0  M849 685 L849 685 861 685 M855 691 L855 691 855 679" id="h2707691519" class="r"></path><path d="M 688 205 m -1, 0 a 1,1 0 1,0 2,0 a 1,1 0 1,0 -2,0 M 688 205 m -0.5, 0 a 0.5,0.5 0 1,0 1,0 a 0.5,0.5 0 1,0 -1,0  M688 205 L688 205 676 205 M 688 211 m -1, 0 a 1,1 0 1,0 2,0 a 1,1 0 1,0 -2,0 M 688 211 m -0.5, 0 a 0.5,0.5 0 1,0 1,0 a 0.5,0.5 0 1,0 -1,0  M688 211 L688 211 681 205 688 199 M 688 199 m -1, 0 a 1,1 0 1,0 2,0 a 1,1 0 1,0 -2,0 M 688 199 m -0.5, 0 a 0.5,0.5 0 1,0 1,0 a 0.5,0.5 0 1,0 -1,0  M676 205 Q 606 205, 536 142.5 T 396 80 M 384 80 m -1, 0 a 1,1 0 1,0 2,0 a 1,1 0 1,0 -2,0 M 384 80 m -0.5, 0 a 0.5,0.5 0 1,0 1,0 a 0.5,0.5 0 1,0 -1,0  M384 80 L384 80 396 80 M390 86 L390 86 390 74" id="h1998298054" class="r"></path><path d="M 688 305 m -1, 0 a 1,1 0 1,0 2,0 a 1,1 0 1,0 -2,0 M 688 305 m -0.5, 0 a 0.5,0.5 0 1,0 1,0 a 0.5,0.5 0 1,0 -1,0  M688 305 L688 305 676 305 M 688 311 m -1, 0 a 1,1 0 1,0 2,0 a 1,1 0 1,0 -2,0 M 688 311 m -0.5, 0 a 0.5,0.5 0 1,0 1,0 a 0.5,0.5 0 1,0 -1,0  M688 311 L688 311 681 305 688 299 M 688 299 m -1, 0 a 1,1 0 1,0 2,0 a 1,1 0 1,0 -2,0 M 688 299 m -0.5, 0 a 0.5,0.5 0 1,0 1,0 a 0.5,0.5 0 1,0 -1,0  M676 305 C 539.6 305, 572 543, 622 543 M 634 543 m -1, 0 a 1,1 0 1,0 2,0 a 1,1 0 1,0 -2,0 M 634 543 m -0.5, 0 a 0.5,0.5 0 1,0 1,0 a 0.5,0.5 0 1,0 -1,0  M634 543 L634 543 622 543 M628 549 L628 549 628 537" id="h3164424204" class="r"></path><path d="M 465 542 m -1, 0 a 1,1 0 1,0 2,0 a 1,1 0 1,0 -2,0 M 465 542 m -0.5, 0 a 0.5,0.5 0 1,0 1,0 a 0.5,0.5 0 1,0 -1,0  M465 542 L465 542 477 542 M 465 548 m -1, 0 a 1,1 0 1,0 2,0 a 1,1 0 1,0 -2,0 M 465 548 m -0.5, 0 a 0.5,0.5 0 1,0 1,0 a 0.5,0.5 0 1,0 -1,0  M465 548 L465 548 472 542 465 536 M 465 536 m -1, 0 a 1,1 0 1,0 2,0 a 1,1 0 1,0 -2,0 M 465 536 m -0.5, 0 a 0.5,0.5 0 1,0 1,0 a 0.5,0.5 0 1,0 -1,0  M477 542 Q 526.75 542, 576.5 323.5 T 676 105 M 688 105 m -1, 0 a 1,1 0 1,0 2,0 a 1,1 0 1,0 -2,0 M 688 105 m -0.5, 0 a 0.5,0.5 0 1,0 1,0 a 0.5,0.5 0 1,0 -1,0  M688 105 L688 105 676 105 M682 111 L682 111 682 99" id="h3560789986" class="r"></path><path d="M 303 592 m -1, 0 a 1,1 0 1,0 2,0 a 1,1 0 1,0 -2,0 M 303 592 m -0.5, 0 a 0.5,0.5 0 1,0 1,0 a 0.5,0.5 0 1,0 -1,0  M303 592 L303 592 291 592 M 303 598 m -1, 0 a 1,1 0 1,0 2,0 a 1,1 0 1,0 -2,0 M 303 598 m -0.5, 0 a 0.5,0.5 0 1,0 1,0 a 0.5,0.5 0 1,0 -1,0  M303 598 L303 598 296 592 303 586 M 303 586 m -1, 0 a 1,1 0 1,0 2,0 a 1,1 0 1,0 -2,0 M 303 586 m -0.5, 0 a 0.5,0.5 0 1,0 1,0 a 0.5,0.5 0 1,0 -1,0  M291 592 Q 273.5 592, 256 490 T 221 388 M 209 388 m -1, 0 a 1,1 0 1,0 2,0 a 1,1 0 1,0 -2,0 M 209 388 m -0.5, 0 a 0.5,0.5 0 1,0 1,0 a 0.5,0.5 0 1,0 -1,0  M209 388 L209 388 221 388 M215 394 L215 394 215 382" id="h1436187453" class="r"></path><path d="M 465 617 m -1, 0 a 1,1 0 1,0 2,0 a 1,1 0 1,0 -2,0 M 465 617 m -0.5, 0 a 0.5,0.5 0 1,0 1,0 a 0.5,0.5 0 1,0 -1,0  M465 617 L465 617 477 617 M 465 623 m -1, 0 a 1,1 0 1,0 2,0 a 1,1 0 1,0 -2,0 M 465 623 m -0.5, 0 a 0.5,0.5 0 1,0 1,0 a 0.5,0.5 0 1,0 -1,0  M465 623 L465 623 472 617 465 611 M 465 611 m -1, 0 a 1,1 0 1,0 2,0 a 1,1 0 1,0 -2,0 M 465 611 m -0.5, 0 a 0.5,0.5 0 1,0 1,0 a 0.5,0.5 0 1,0 -1,0  M477 617 Q 535.25 617, 593.5 651 T 710 685 M 722 685 m -1, 0 a 1,1 0 1,0 2,0 a 1,1 0 1,0 -2,0 M 722 685 m -0.5, 0 a 0.5,0.5 0 1,0 1,0 a 0.5,0.5 0 1,0 -1,0  M722 685 L722 685 710 685 M716 691 L716 691 716 679" id="h1500293180" class="r"></path><path d="M 465 642 m -1, 0 a 1,1 0 1,0 2,0 a 1,1 0 1,0 -2,0 M 465 642 m -0.5, 0 a 0.5,0.5 0 1,0 1,0 a 0.5,0.5 0 1,0 -1,0  M465 642 L465 642 477 642 M 465 648 m -1, 0 a 1,1 0 1,0 2,0 a 1,1 0 1,0 -2,0 M 465 648 m -0.5, 0 a 0.5,0.5 0 1,0 1,0 a 0.5,0.5 0 1,0 -1,0  M465 648 L465 648 472 642 465 636 M 465 636 m -1, 0 a 1,1 0 1,0 2,0 a 1,1 0 1,0 -2,0 M 465 636 m -0.5, 0 a 0.5,0.5 0 1,0 1,0 a 0.5,0.5 0 1,0 -1,0  M477 642 C 527 642, 575.6 80, 396 80 M 384 80 m -1, 0 a 1,1 0 1,0 2,0 a 1,1 0 1,0 -2,0 M 384 80 m -0.5, 0 a 0.5,0.5 0 1,0 1,0 a 0.5,0.5 0 1,0 -1,0  M384 80 L384 80 396 80 M390 86 L390 86 390 74" id="h2975408173" class="r"></path></g><g class="hrs"></g><g class="ts"><svg width="146" height="125" x="63" y="331" id="h1304670300" class="t"><rect height="40" width="146" class="th"></rect><text x="13" y="25" class="tht">Customer</text><rect height="85" width="146" class="t-bg" y="40"></rect><text x="13" y="61" class="tf pk">CustomerID<tspan x="133" class="ty">int</tspan></text><path d="M7,14A2,2 0 0,1 5,12A2,2 0 0,1 7,10A2,2 0 0,1 9,12A2,2 0 0,1 7,14M12.65,10C11.83,7.67 9.61,6 7, 6A6, 6 0 0, 0 1, 12A6, 6 0 0, 0 7, 18C9.61, 18 11.83, 16.33 12.65, 14H17V18H21V14H23V10H12.65Z" class="i pk" transform="translate(100, 48) scale(0.65)"></path><text x="13" y="86" class="tf">Name<tspan x="133" class="ty">string</tspan></text><text x="13" y="111" class="tf">Email<tspan x="133" class="ty">string</tspan></text></svg><svg width="162" height="275" x="688" y="48" id="h3867444944" class="t"><rect height="40" width="162" class="th"></rect><text x="13" y="25" class="tht">Orders</text><rect height="235" width="162" class="t-bg" y="40"></rect><text x="13" y="61" class="tf pk">OrderID<tspan x="149" class="ty">int</tspan></text><path d="M7,14A2,2 0 0,1 5,12A2,2 0 0,1 7,10A2,2 0 0,1 9,12A2,2 0 0,1 7,14M12.65,10C11.83,7.67 9.61,6 7, 6A6, 6 0 0, 0 1, 12A6, 6 0 0, 0 7, 18C9.61, 18 11.83, 16.33 12.65, 14H17V18H21V14H23V10H12.65Z" class="i pk" transform="translate(116, 48) scale(0.65)"></path><text x="13" y="86" class="tf">Date<tspan x="149" class="ty">datetime</tspan></text><text x="13" y="111" class="tf fk">CustomerID<tspan x="149" class="ty">int</tspan></text><text x="13" y="136" class="tf fk">TypeID<tspan x="149" class="ty">int</tspan></text><text x="13" y="161" class="tf fk">SecuritiesCode<tspan x="149" class="ty">string</tspan></text><text x="13" y="186" class="tf">Qty<tspan x="149" class="ty">int</tspan></text><text x="13" y="211" class="tf">Price<tspan x="149" class="ty">int</tspan></text><text x="13" y="236" class="tf">Value<tspan x="149" class="ty">int</tspan></text><text x="13" y="261" class="tf fk">OrderStatusID<tspan x="149" class="ty">int</tspan></text></svg><svg width="162" height="275" x="303" y="460" id="h4051401459" class="t"><rect height="40" width="162" class="th"></rect><text x="13" y="25" class="tht">Trades</text><rect height="235" width="162" class="t-bg" y="40"></rect><text x="13" y="61" class="tf pk">TradeID<tspan x="149" class="ty">int</tspan></text><path d="M7,14A2,2 0 0,1 5,12A2,2 0 0,1 7,10A2,2 0 0,1 9,12A2,2 0 0,1 7,14M12.65,10C11.83,7.67 9.61,6 7, 6A6, 6 0 0, 0 1, 12A6, 6 0 0, 0 7, 18C9.61, 18 11.83, 16.33 12.65, 14H17V18H21V14H23V10H12.65Z" class="i pk" transform="translate(116, 48) scale(0.65)"></path><text x="13" y="86" class="tf fk">OrderID<tspan x="149" class="ty">int</tspan></text><text x="13" y="111" class="tf">Date<tspan x="149" class="ty">datetime</tspan></text><text x="13" y="136" class="tf fk">CustomerID<tspan x="149" class="ty">int</tspan></text><text x="13" y="161" class="tf fk">TypeID<tspan x="149" class="ty">int</tspan></text><text x="13" y="186" class="tf fk">SecuritiesCode<tspan x="149" class="ty">string</tspan></text><text x="13" y="211" class="tf">Qty<tspan x="149" class="ty">int</tspan></text><text x="13" y="236" class="tf">Price<tspan x="149" class="ty">int</tspan></text><text x="13" y="261" class="tf">Value<tspan x="149" class="ty">int</tspan></text></svg><svg width="157" height="100" x="634" y="486" id="h579050706" class="t"><rect height="40" width="157" class="th"></rect><text x="13" y="25" class="tht">OrderStatus</text><rect height="60" width="157" class="t-bg" y="40"></rect><text x="13" y="61" class="tf pk">OrderStatusID<tspan x="144" class="ty">int</tspan></text><path d="M7,14A2,2 0 0,1 5,12A2,2 0 0,1 7,10A2,2 0 0,1 9,12A2,2 0 0,1 7,14M12.65,10C11.83,7.67 9.61,6 7, 6A6, 6 0 0, 0 1, 12A6, 6 0 0, 0 7, 18C9.61, 18 11.83, 16.33 12.65, 14H17V18H21V14H23V10H12.65Z" class="i pk" transform="translate(111, 48) scale(0.65)"></path><text x="13" y="86" class="tf">Name<tspan x="144" class="ty">string</tspan></text><path d="M22,18V22H18V19H15V16H12L9.74,13.74C9.19,13.91 8.61,14 8,14A6,6 0 0,1 2,8A6,6 0 0,1 8,2A6,6 0 0,1 14,8C14,8.61 13.91, 9.19 13.74, 9.74L22, 18M7, 5A2, 2 0 0, 0 5, 7A2, 2 0 0, 0 7, 9A2, 2 0 0, 0 9, 7A2, 2 0 0, 0 7, 5Z" class="i uq" transform="translate(97, 75.5) scale(0.5)"></path></svg><svg width="127" height="100" x="722" y="628" id="h2830784269" class="t"><rect height="40" width="127" class="th"></rect><text x="13" y="25" class="tht">OrdersType</text><rect height="60" width="127" class="t-bg" y="40"></rect><text x="13" y="61" class="tf pk">TypeID<tspan x="114" class="ty">int</tspan></text><path d="M7,14A2,2 0 0,1 5,12A2,2 0 0,1 7,10A2,2 0 0,1 9,12A2,2 0 0,1 7,14M12.65,10C11.83,7.67 9.61,6 7, 6A6, 6 0 0, 0 1, 12A6, 6 0 0, 0 7, 18C9.61, 18 11.83, 16.33 12.65, 14H17V18H21V14H23V10H12.65Z" class="i pk" transform="translate(81, 48) scale(0.65)"></path><text x="13" y="86" class="tf">Name<tspan x="114" class="ty">string</tspan></text><path d="M22,18V22H18V19H15V16H12L9.74,13.74C9.19,13.91 8.61,14 8,14A6,6 0 0,1 2,8A6,6 0 0,1 8,2A6,6 0 0,1 14,8C14,8.61 13.91, 9.19 13.74, 9.74L22, 18M7, 5A2, 2 0 0, 0 5, 7A2, 2 0 0, 0 7, 9A2, 2 0 0, 0 9, 7A2, 2 0 0, 0 7, 5Z" class="i uq" transform="translate(67, 75.5) scale(0.5)"></path></svg><svg width="182" height="100" x="202" y="23" id="h3595006727" class="t"><rect height="40" width="182" class="th"></rect><text x="13" y="25" class="tht">Securities</text><rect height="60" width="182" class="t-bg" y="40"></rect><text x="13" y="61" class="tf pk">SecuritiesCode<tspan x="169" class="ty">string</tspan></text><path d="M7,14A2,2 0 0,1 5,12A2,2 0 0,1 7,10A2,2 0 0,1 9,12A2,2 0 0,1 7,14M12.65,10C11.83,7.67 9.61,6 7, 6A6, 6 0 0, 0 1, 12A6, 6 0 0, 0 7, 18C9.61, 18 11.83, 16.33 12.65, 14H17V18H21V14H23V10H12.65Z" class="i pk" transform="translate(118, 48) scale(0.65)"></path><text x="13" y="86" class="tf">Name<tspan x="169" class="ty">string</tspan></text></svg></g></g><text class="qdbd-link" x="10" y="20">www.quickdatabasediagrams.com</text></svg>