<svg class="diagram-root" style="background: #f5f6f6" xmlns="http://www.w3.org/2000/svg" xmlns:xlink="http://www.w3.org/1999/xlink"><style>.diagram-root { font-family: "Helvetica Neue", sans-serif; font-size: 12px; } .t { overflow: visible; } .t-bg { y: 40; fill: #fff;   } .th { fill: #005aa0;   } .tht { fill: #fff; font-size: 14px;  } .tf { fill: #323c46; overflow: visible; } .tf.pk { fill: #005aa0; font-weight: bold; } .tf.fk { font-weight: bold; } .ty { fill: #adb1b5; font-weight: normal; text-anchor: end; } .r { fill: transparent; stroke: #c3c3c3; stroke-width: 1; } .l { stroke: 1; } .i { fill: #c2c7ce; stroke: #c2c7ce; } .i.ix { fill: #afb3b6; stroke: #000; } .fa { fill: transparent; overflow: visible; } .fa .bg.hover { fill: #f7f7f7; } .c { cy: 12; r: 4; stroke: #d2d2dc; fill: #d2d2dc; } .hr { fill: transparent; stroke: #323c46; stroke-opacity: 0.035; stroke-width: 13; } .dc { stroke: #fa5a3c; fill: #fa5a3c; } .x { stroke: white; stroke-width: 1; } .hl .th { fill: #1b9bff; } .hl .tht {  } .fhl .bg { fill: #e7f4ff; } .fhls .bg {  } .r.hl { stroke: #1b9bff; } .dim { opacity: 0.25; }</style><g class="drawing-wrapper" transform="translate(-107, -126) scale(1,1)"><g class="rs"><path d="M 187 519 m -1, 0 a 1,1 0 1,0 2,0 a 1,1 0 1,0 -2,0 M 187 519 m -0.5, 0 a 0.5,0.5 0 1,0 1,0 a 0.5,0.5 0 1,0 -1,0  M187 519 L187 519 175 519 M 187 525 m -1, 0 a 1,1 0 1,0 2,0 a 1,1 0 1,0 -2,0 M 187 525 m -0.5, 0 a 0.5,0.5 0 1,0 1,0 a 0.5,0.5 0 1,0 -1,0  M187 525 L187 525 180 519 187 513 M 187 513 m -1, 0 a 1,1 0 1,0 2,0 a 1,1 0 1,0 -2,0 M 187 513 m -0.5, 0 a 0.5,0.5 0 1,0 1,0 a 0.5,0.5 0 1,0 -1,0  M175 519 C 32.19999999999999 519, 67 218, 117 218 M 129 218 m -1, 0 a 1,1 0 1,0 2,0 a 1,1 0 1,0 -2,0 M 129 218 m -0.5, 0 a 0.5,0.5 0 1,0 1,0 a 0.5,0.5 0 1,0 -1,0  M129 218 L129 218 117 218 M123 224 L123 224 123 212" id="h421557469" class="r"></path><path d="M 349 544 m -1, 0 a 1,1 0 1,0 2,0 a 1,1 0 1,0 -2,0 M 349 544 m -0.5, 0 a 0.5,0.5 0 1,0 1,0 a 0.5,0.5 0 1,0 -1,0  M349 544 L349 544 361 544 M 349 550 m -1, 0 a 1,1 0 1,0 2,0 a 1,1 0 1,0 -2,0 M 349 550 m -0.5, 0 a 0.5,0.5 0 1,0 1,0 a 0.5,0.5 0 1,0 -1,0  M349 550 L349 550 356 544 349 538 M 349 538 m -1, 0 a 1,1 0 1,0 2,0 a 1,1 0 1,0 -2,0 M 349 538 m -0.5, 0 a 0.5,0.5 0 1,0 1,0 a 0.5,0.5 0 1,0 -1,0  M361 544 Q 421.25 544, 481.5 511 T 602 478 M 614 478 m -1, 0 a 1,1 0 1,0 2,0 a 1,1 0 1,0 -2,0 M 614 478 m -0.5, 0 a 0.5,0.5 0 1,0 1,0 a 0.5,0.5 0 1,0 -1,0  M614 478 L614 478 602 478 M608 484 L608 484 608 472" id="h2707691519" class="r"></path><path d="M 349 569 m -1, 0 a 1,1 0 1,0 2,0 a 1,1 0 1,0 -2,0 M 349 569 m -0.5, 0 a 0.5,0.5 0 1,0 1,0 a 0.5,0.5 0 1,0 -1,0  M349 569 L349 569 361 569 M 349 575 m -1, 0 a 1,1 0 1,0 2,0 a 1,1 0 1,0 -2,0 M 349 575 m -0.5, 0 a 0.5,0.5 0 1,0 1,0 a 0.5,0.5 0 1,0 -1,0  M349 575 L349 575 356 569 349 563 M 349 563 m -1, 0 a 1,1 0 1,0 2,0 a 1,1 0 1,0 -2,0 M 349 563 m -0.5, 0 a 0.5,0.5 0 1,0 1,0 a 0.5,0.5 0 1,0 -1,0  M361 569 Q 423.25 569, 485.5 585 T 610 601 M 622 601 m -1, 0 a 1,1 0 1,0 2,0 a 1,1 0 1,0 -2,0 M 622 601 m -0.5, 0 a 0.5,0.5 0 1,0 1,0 a 0.5,0.5 0 1,0 -1,0  M622 601 L622 601 610 601 M616 607 L616 607 616 595" id="h1998298054" class="r"></path><path d="M 349 669 m -1, 0 a 1,1 0 1,0 2,0 a 1,1 0 1,0 -2,0 M 349 669 m -0.5, 0 a 0.5,0.5 0 1,0 1,0 a 0.5,0.5 0 1,0 -1,0  M349 669 L349 669 361 669 M 349 675 m -1, 0 a 1,1 0 1,0 2,0 a 1,1 0 1,0 -2,0 M 349 675 m -0.5, 0 a 0.5,0.5 0 1,0 1,0 a 0.5,0.5 0 1,0 -1,0  M349 675 L349 675 356 669 349 663 M 349 663 m -1, 0 a 1,1 0 1,0 2,0 a 1,1 0 1,0 -2,0 M 349 663 m -0.5, 0 a 0.5,0.5 0 1,0 1,0 a 0.5,0.5 0 1,0 -1,0  M361 669 Q 425.25 669, 489.5 692.5 T 618 716 M 630 716 m -1, 0 a 1,1 0 1,0 2,0 a 1,1 0 1,0 -2,0 M 630 716 m -0.5, 0 a 0.5,0.5 0 1,0 1,0 a 0.5,0.5 0 1,0 -1,0  M630 716 L630 716 618 716 M624 722 L624 722 624 710" id="h3164424204" class="r"></path><path d="M 604 238 m -1, 0 a 1,1 0 1,0 2,0 a 1,1 0 1,0 -2,0 M 604 238 m -0.5, 0 a 0.5,0.5 0 1,0 1,0 a 0.5,0.5 0 1,0 -1,0  M604 238 L604 238 592 238 M 604 244 m -1, 0 a 1,1 0 1,0 2,0 a 1,1 0 1,0 -2,0 M 604 244 m -0.5, 0 a 0.5,0.5 0 1,0 1,0 a 0.5,0.5 0 1,0 -1,0  M604 244 L604 244 597 238 604 232 M 604 232 m -1, 0 a 1,1 0 1,0 2,0 a 1,1 0 1,0 -2,0 M 604 232 m -0.5, 0 a 0.5,0.5 0 1,0 1,0 a 0.5,0.5 0 1,0 -1,0  M592 238 Q 534.25 238, 476.5 353.5 T 361 469 M 349 469 m -1, 0 a 1,1 0 1,0 2,0 a 1,1 0 1,0 -2,0 M 349 469 m -0.5, 0 a 0.5,0.5 0 1,0 1,0 a 0.5,0.5 0 1,0 -1,0  M349 469 L349 469 361 469 M355 475 L355 475 355 463" id="h3560789986" class="r"></path></g><g class="hrs"></g><g class="ts"><svg width="162" height="275" x="187" y="412" id="h3867444944" class="t"><rect height="40" width="162" class="th"></rect><text x="13" y="25" class="tht">Orders</text><rect height="235" width="162" class="t-bg" y="40"></rect><text x="13" y="61" class="tf pk">OrderID<tspan x="149" class="ty">int</tspan></text><path d="M7,14A2,2 0 0,1 5,12A2,2 0 0,1 7,10A2,2 0 0,1 9,12A2,2 0 0,1 7,14M12.65,10C11.83,7.67 9.61,6 7, 6A6, 6 0 0, 0 1, 12A6, 6 0 0, 0 7, 18C9.61, 18 11.83, 16.33 12.65, 14H17V18H21V14H23V10H12.65Z" class="i pk" transform="translate(116, 48) scale(0.65)"></path><text x="13" y="86" class="tf">Date<tspan x="149" class="ty">datetime</tspan></text><text x="13" y="111" class="tf fk">CustomerID<tspan x="149" class="ty">int</tspan></text><text x="13" y="136" class="tf fk">TypeID<tspan x="149" class="ty">int</tspan></text><text x="13" y="161" class="tf fk">SecuritiesCode<tspan x="149" class="ty">string</tspan></text><text x="13" y="186" class="tf">Qty<tspan x="149" class="ty">int</tspan></text><text x="13" y="211" class="tf">Price<tspan x="149" class="ty">int</tspan></text><text x="13" y="236" class="tf">Value<tspan x="149" class="ty">int</tspan></text><text x="13" y="261" class="tf fk">OrderStatusID<tspan x="149" class="ty">int</tspan></text></svg><svg width="182" height="100" x="622" y="544" id="h3595006727" class="t"><rect height="40" width="182" class="th"></rect><text x="13" y="25" class="tht">Securities</text><rect height="60" width="182" class="t-bg" y="40"></rect><text x="13" y="61" class="tf pk">SecuritiesCode<tspan x="169" class="ty">string</tspan></text><path d="M7,14A2,2 0 0,1 5,12A2,2 0 0,1 7,10A2,2 0 0,1 9,12A2,2 0 0,1 7,14M12.65,10C11.83,7.67 9.61,6 7, 6A6, 6 0 0, 0 1, 12A6, 6 0 0, 0 7, 18C9.61, 18 11.83, 16.33 12.65, 14H17V18H21V14H23V10H12.65Z" class="i pk" transform="translate(118, 48) scale(0.65)"></path><text x="13" y="86" class="tf">Name<tspan x="169" class="ty">string</tspan></text></svg><svg width="127" height="100" x="614" y="421" id="h2830784269" class="t"><rect height="40" width="127" class="th"></rect><text x="13" y="25" class="tht">OrdersType</text><rect height="60" width="127" class="t-bg" y="40"></rect><text x="13" y="61" class="tf pk">TypeID<tspan x="114" class="ty">int</tspan></text><path d="M7,14A2,2 0 0,1 5,12A2,2 0 0,1 7,10A2,2 0 0,1 9,12A2,2 0 0,1 7,14M12.65,10C11.83,7.67 9.61,6 7, 6A6, 6 0 0, 0 1, 12A6, 6 0 0, 0 7, 18C9.61, 18 11.83, 16.33 12.65, 14H17V18H21V14H23V10H12.65Z" class="i pk" transform="translate(81, 48) scale(0.65)"></path><text x="13" y="86" class="tf">Name<tspan x="114" class="ty">string</tspan></text><path d="M22,18V22H18V19H15V16H12L9.74,13.74C9.19,13.91 8.61,14 8,14A6,6 0 0,1 2,8A6,6 0 0,1 8,2A6,6 0 0,1 14,8C14,8.61 13.91, 9.19 13.74, 9.74L22, 18M7, 5A2, 2 0 0, 0 5, 7A2, 2 0 0, 0 7, 9A2, 2 0 0, 0 9, 7A2, 2 0 0, 0 7, 5Z" class="i uq" transform="translate(67, 75.5) scale(0.5)"></path></svg><svg width="157" height="100" x="630" y="659" id="h579050706" class="t"><rect height="40" width="157" class="th"></rect><text x="13" y="25" class="tht">OrderStatus</text><rect height="60" width="157" class="t-bg" y="40"></rect><text x="13" y="61" class="tf pk">OrderStatusID<tspan x="144" class="ty">int</tspan></text><path d="M7,14A2,2 0 0,1 5,12A2,2 0 0,1 7,10A2,2 0 0,1 9,12A2,2 0 0,1 7,14M12.65,10C11.83,7.67 9.61,6 7, 6A6, 6 0 0, 0 1, 12A6, 6 0 0, 0 7, 18C9.61, 18 11.83, 16.33 12.65, 14H17V18H21V14H23V10H12.65Z" class="i pk" transform="translate(111, 48) scale(0.65)"></path><text x="13" y="86" class="tf">Name<tspan x="144" class="ty">string</tspan></text><path d="M22,18V22H18V19H15V16H12L9.74,13.74C9.19,13.91 8.61,14 8,14A6,6 0 0,1 2,8A6,6 0 0,1 8,2A6,6 0 0,1 14,8C14,8.61 13.91, 9.19 13.74, 9.74L22, 18M7, 5A2, 2 0 0, 0 5, 7A2, 2 0 0, 0 7, 9A2, 2 0 0, 0 9, 7A2, 2 0 0, 0 7, 5Z" class="i uq" transform="translate(97, 75.5) scale(0.5)"></path></svg><svg width="123" height="125" x="604" y="156" id="h4051401459" class="t"><rect height="40" width="123" class="th"></rect><text x="13" y="25" class="tht">Trades</text><rect height="85" width="123" class="t-bg" y="40"></rect><text x="13" y="61" class="tf pk">TradeID<tspan x="110" class="ty">int</tspan></text><path d="M7,14A2,2 0 0,1 5,12A2,2 0 0,1 7,10A2,2 0 0,1 9,12A2,2 0 0,1 7,14M12.65,10C11.83,7.67 9.61,6 7, 6A6, 6 0 0, 0 1, 12A6, 6 0 0, 0 7, 18C9.61, 18 11.83, 16.33 12.65, 14H17V18H21V14H23V10H12.65Z" class="i pk" transform="translate(77, 48) scale(0.65)"></path><text x="13" y="86" class="tf fk">OrderID<tspan x="110" class="ty">int</tspan></text><text x="13" y="111" class="tf">Date<tspan x="110" class="ty">datetime</tspan></text></svg><svg width="146" height="125" x="129" y="161" id="h1304670300" class="t"><rect height="40" width="146" class="th"></rect><text x="13" y="25" class="tht">Customer</text><rect height="85" width="146" class="t-bg" y="40"></rect><text x="13" y="61" class="tf pk">CustomerID<tspan x="133" class="ty">int</tspan></text><path d="M7,14A2,2 0 0,1 5,12A2,2 0 0,1 7,10A2,2 0 0,1 9,12A2,2 0 0,1 7,14M12.65,10C11.83,7.67 9.61,6 7, 6A6, 6 0 0, 0 1, 12A6, 6 0 0, 0 7, 18C9.61, 18 11.83, 16.33 12.65, 14H17V18H21V14H23V10H12.65Z" class="i pk" transform="translate(100, 48) scale(0.65)"></path><text x="13" y="86" class="tf">Name<tspan x="133" class="ty">string</tspan></text><text x="13" y="111" class="tf">Email<tspan x="133" class="ty">string</tspan></text></svg></g></g><text class="qdbd-link" x="10" y="20">www.quickdatabasediagrams.com</text></svg>